<svg xmlns="http://www.w3.org/2000/svg" version="1.1" xmlns:xlink="http://www.w3.org/1999/xlink" xmlns:svgjs="http://svgjs.dev/svgjs" viewBox="0 0 800 800" width="800" height="800"><g stroke-width="1.75" stroke="hsla(0, 60%, 38%, 1.00)" fill="none"><circle r="2.0789473684210527" cx="0" cy="0" fill="hsla(0, 60%, 38%, 1.00)" stroke="none"></circle><circle r="2.0789473684210527" cx="44.44444444444444" cy="0" fill="hsla(0, 60%, 38%, 1.00)" stroke="none"></circle><circle r="2.0789473684210527" cx="88.88888888888889" cy="0" fill="hsla(0, 60%, 38%, 1.00)" stroke="none"></circle><circle r="2.0789473684210527" cx="133.33333333333331" cy="0" fill="hsla(0, 60%, 38%, 1.00)" stroke="none"></circle><circle r="2.0789473684210527" cx="177.77777777777777" cy="0" fill="hsla(0, 60%, 38%, 1.00)" stroke="none"></circle><circle r="2.0789473684210527" cx="222.22222222222223" cy="0" fill="hsla(0, 60%, 38%, 1.00)" stroke="none"></circle><circle r="2.0789473684210527" cx="266.6666666666667" cy="0" fill="hsla(0, 60%, 38%, 1.00)" stroke="none"></circle><circle r="2.0789473684210527" cx="311.11111111111114" cy="0" fill="hsla(0, 60%, 38%, 1.00)" stroke="none"></circle><circle r="2.0789473684210527" cx="355.5555555555556" cy="0" fill="hsla(0, 60%, 38%, 1.00)" stroke="none"></circle><circle r="2.0789473684210527" cx="400.00000000000006" cy="0" fill="hsla(0, 60%, 38%, 1.00)" stroke="none"></circle><circle r="2.0789473684210527" cx="444.4444444444445" cy="0" fill="hsla(0, 60%, 38%, 1.00)" stroke="none"></circle><circle r="2.0789473684210527" cx="488.88888888888897" cy="0" fill="hsla(0, 60%, 38%, 1.00)" stroke="none"></circle><circle r="2.0789473684210527" cx="533.3333333333334" cy="0" fill="hsla(0, 60%, 38%, 1.00)" stroke="none"></circle><circle r="2.0789473684210527" cx="577.7777777777778" cy="0" fill="hsla(0, 60%, 38%, 1.00)" stroke="none"></circle><circle r="2.0789473684210527" cx="622.2222222222223" cy="0" fill="hsla(0, 60%, 38%, 1.00)" stroke="none"></circle><circle r="2.0789473684210527" cx="666.6666666666667" cy="0" fill="hsla(0, 60%, 38%, 1.00)" stroke="none"></circle><circle r="2.0789473684210527" cx="711.1111111111112" cy="0" fill="hsla(0, 60%, 38%, 1.00)" stroke="none"></circle><circle r="2.0789473684210527" cx="755.5555555555557" cy="0" fill="hsla(0, 60%, 38%, 1.00)" stroke="none"></circle><circle r="2.0789473684210527" cx="800.0000000000001" cy="0" fill="hsla(0, 60%, 38%, 1.00)" stroke="none"></circle><circle r="2.0789473684210527" cx="0" cy="80" fill="hsla(0, 60%, 38%, 1.00)" stroke="none"></circle><circle r="2.0789473684210527" cx="44.44444444444444" cy="80" fill="hsla(0, 60%, 38%, 1.00)" stroke="none"></circle><circle r="2.0789473684210527" cx="88.88888888888889" cy="80" fill="hsla(0, 60%, 38%, 1.00)" stroke="none"></circle><circle r="2.0789473684210527" cx="133.33333333333331" cy="80" fill="hsla(0, 60%, 38%, 1.00)" stroke="none"></circle><circle r="2.0789473684210527" cx="177.77777777777777" cy="80" fill="hsla(0, 60%, 38%, 1.00)" stroke="none"></circle><circle r="2.0789473684210527" cx="222.22222222222223" cy="80" fill="hsla(0, 60%, 38%, 1.00)" stroke="none"></circle><circle r="2.0789473684210527" cx="266.6666666666667" cy="80" fill="hsla(0, 60%, 38%, 1.00)" stroke="none"></circle><circle r="2.0789473684210527" cx="311.11111111111114" cy="80" fill="hsla(0, 60%, 38%, 1.00)" stroke="none"></circle><circle r="2.0789473684210527" cx="355.5555555555556" cy="80" fill="hsla(0, 60%, 38%, 1.00)" stroke="none"></circle><circle r="2.0789473684210527" cx="400.00000000000006" cy="80" fill="hsla(0, 60%, 38%, 1.00)" stroke="none"></circle><circle r="2.0789473684210527" cx="444.4444444444445" cy="80" fill="hsla(0, 60%, 38%, 1.00)" stroke="none"></circle><circle r="2.0789473684210527" cx="488.88888888888897" cy="80" fill="hsla(0, 60%, 38%, 1.00)" stroke="none"></circle><circle r="2.0789473684210527" cx="533.3333333333334" cy="80" fill="hsla(0, 60%, 38%, 1.00)" stroke="none"></circle><circle r="2.0789473684210527" cx="577.7777777777778" cy="80" fill="hsla(0, 60%, 38%, 1.00)" stroke="none"></circle><circle r="2.0789473684210527" cx="622.2222222222223" cy="80" fill="hsla(0, 60%, 38%, 1.00)" stroke="none"></circle><circle r="2.0789473684210527" cx="666.6666666666667" cy="80" fill="hsla(0, 60%, 38%, 1.00)" stroke="none"></circle><circle r="2.0789473684210527" cx="711.1111111111112" cy="80" fill="hsla(0, 60%, 38%, 1.00)" stroke="none"></circle><circle r="2.0789473684210527" cx="755.5555555555557" cy="80" fill="hsla(0, 60%, 38%, 1.00)" stroke="none"></circle><circle r="2.0789473684210527" cx="800.0000000000001" cy="80" fill="hsla(0, 60%, 38%, 1.00)" stroke="none"></circle><circle r="2.0789473684210527" cx="0" cy="160" fill="hsla(0, 60%, 38%, 1.00)" stroke="none"></circle><circle r="2.0789473684210527" cx="44.44444444444444" cy="160" fill="hsla(0, 60%, 38%, 1.00)" stroke="none"></circle><circle r="2.0789473684210527" cx="88.88888888888889" cy="160" fill="hsla(0, 60%, 38%, 1.00)" stroke="none"></circle><circle r="2.0789473684210527" cx="133.33333333333331" cy="160" fill="hsla(0, 60%, 38%, 1.00)" stroke="none"></circle><circle r="2.0789473684210527" cx="177.77777777777777" cy="160" fill="hsla(0, 60%, 38%, 1.00)" stroke="none"></circle><circle r="2.0789473684210527" cx="222.22222222222223" cy="160" fill="hsla(0, 60%, 38%, 1.00)" stroke="none"></circle><circle r="2.0789473684210527" cx="266.6666666666667" cy="160" fill="hsla(0, 60%, 38%, 1.00)" stroke="none"></circle><circle r="2.0789473684210527" cx="311.11111111111114" cy="160" fill="hsla(0, 60%, 38%, 1.00)" stroke="none"></circle><circle r="2.0789473684210527" cx="355.5555555555556" cy="160" fill="hsla(0, 60%, 38%, 1.00)" stroke="none"></circle><circle r="2.0789473684210527" cx="400.00000000000006" cy="160" fill="hsla(0, 60%, 38%, 1.00)" stroke="none"></circle><circle r="2.0789473684210527" cx="444.4444444444445" cy="160" fill="hsla(0, 60%, 38%, 1.00)" stroke="none"></circle><circle r="2.0789473684210527" cx="488.88888888888897" cy="160" fill="hsla(0, 60%, 38%, 1.00)" stroke="none"></circle><circle r="2.0789473684210527" cx="533.3333333333334" cy="160" fill="hsla(0, 60%, 38%, 1.00)" stroke="none"></circle><circle r="2.0789473684210527" cx="577.7777777777778" cy="160" fill="hsla(0, 60%, 38%, 1.00)" stroke="none"></circle><circle r="2.0789473684210527" cx="622.2222222222223" cy="160" fill="hsla(0, 60%, 38%, 1.00)" stroke="none"></circle><circle r="2.0789473684210527" cx="666.6666666666667" cy="160" fill="hsla(0, 60%, 38%, 1.00)" stroke="none"></circle><circle r="2.0789473684210527" cx="711.1111111111112" cy="160" fill="hsla(0, 60%, 38%, 1.00)" stroke="none"></circle><circle r="2.0789473684210527" cx="755.5555555555557" cy="160" fill="hsla(0, 60%, 38%, 1.00)" stroke="none"></circle><circle r="2.0789473684210527" cx="800.0000000000001" cy="160" fill="hsla(0, 60%, 38%, 1.00)" stroke="none"></circle><circle r="2.0789473684210527" cx="0" cy="240" fill="hsla(0, 60%, 38%, 1.00)" stroke="none"></circle><circle r="2.0789473684210527" cx="44.44444444444444" cy="240" fill="hsla(0, 60%, 38%, 1.00)" stroke="none"></circle><circle r="2.0789473684210527" cx="88.88888888888889" cy="240" fill="hsla(0, 60%, 38%, 1.00)" stroke="none"></circle><circle r="2.0789473684210527" cx="133.33333333333331" cy="240" fill="hsla(0, 60%, 38%, 1.00)" stroke="none"></circle><circle r="2.0789473684210527" cx="177.77777777777777" cy="240" fill="hsla(0, 60%, 38%, 1.00)" stroke="none"></circle><circle r="2.0789473684210527" cx="222.22222222222223" cy="240" fill="hsla(0, 60%, 38%, 1.00)" stroke="none"></circle><circle r="2.0789473684210527" cx="266.6666666666667" cy="240" fill="hsla(0, 60%, 38%, 1.00)" stroke="none"></circle><circle r="2.0789473684210527" cx="311.11111111111114" cy="240" fill="hsla(0, 60%, 38%, 1.00)" stroke="none"></circle><circle r="2.0789473684210527" cx="355.5555555555556" cy="240" fill="hsla(0, 60%, 38%, 1.00)" stroke="none"></circle><circle r="2.0789473684210527" cx="400.00000000000006" cy="240" fill="hsla(0, 60%, 38%, 1.00)" stroke="none"></circle><circle r="2.0789473684210527" cx="444.4444444444445" cy="240" fill="hsla(0, 60%, 38%, 1.00)" stroke="none"></circle><circle r="2.0789473684210527" cx="488.88888888888897" cy="240" fill="hsla(0, 60%, 38%, 1.00)" stroke="none"></circle><circle r="2.0789473684210527" cx="533.3333333333334" cy="240" fill="hsla(0, 60%, 38%, 1.00)" stroke="none"></circle><circle r="2.0789473684210527" cx="577.7777777777778" cy="240" fill="hsla(0, 60%, 38%, 1.00)" stroke="none"></circle><circle r="2.0789473684210527" cx="622.2222222222223" cy="240" fill="hsla(0, 60%, 38%, 1.00)" stroke="none"></circle><circle r="2.0789473684210527" cx="666.6666666666667" cy="240" fill="hsla(0, 60%, 38%, 1.00)" stroke="none"></circle><circle r="2.0789473684210527" cx="711.1111111111112" cy="240" fill="hsla(0, 60%, 38%, 1.00)" stroke="none"></circle><circle r="2.0789473684210527" cx="755.5555555555557" cy="240" fill="hsla(0, 60%, 38%, 1.00)" stroke="none"></circle><circle r="2.0789473684210527" cx="800.0000000000001" cy="240" fill="hsla(0, 60%, 38%, 1.00)" stroke="none"></circle><circle r="2.0789473684210527" cx="0" cy="320" fill="hsla(0, 60%, 38%, 1.00)" stroke="none"></circle><circle r="2.0789473684210527" cx="44.44444444444444" cy="320" fill="hsla(0, 60%, 38%, 1.00)" stroke="none"></circle><circle r="2.0789473684210527" cx="88.88888888888889" cy="320" fill="hsla(0, 60%, 38%, 1.00)" stroke="none"></circle><circle r="2.0789473684210527" cx="133.33333333333331" cy="320" fill="hsla(0, 60%, 38%, 1.00)" stroke="none"></circle><circle r="2.0789473684210527" cx="177.77777777777777" cy="320" fill="hsla(0, 60%, 38%, 1.00)" stroke="none"></circle><circle r="2.0789473684210527" cx="222.22222222222223" cy="320" fill="hsla(0, 60%, 38%, 1.00)" stroke="none"></circle><circle r="2.0789473684210527" cx="266.6666666666667" cy="320" fill="hsla(0, 60%, 38%, 1.00)" stroke="none"></circle><circle r="2.0789473684210527" cx="311.11111111111114" cy="320" fill="hsla(0, 60%, 38%, 1.00)" stroke="none"></circle><circle r="2.0789473684210527" cx="355.5555555555556" cy="320" fill="hsla(0, 60%, 38%, 1.00)" stroke="none"></circle><circle r="2.0789473684210527" cx="400.00000000000006" cy="320" fill="hsla(0, 60%, 38%, 1.00)" stroke="none"></circle><circle r="2.0789473684210527" cx="444.4444444444445" cy="320" fill="hsla(0, 60%, 38%, 1.00)" stroke="none"></circle><circle r="2.0789473684210527" cx="488.88888888888897" cy="320" fill="hsla(0, 60%, 38%, 1.00)" stroke="none"></circle><circle r="2.0789473684210527" cx="533.3333333333334" cy="320" fill="hsla(0, 60%, 38%, 1.00)" stroke="none"></circle><circle r="2.0789473684210527" cx="577.7777777777778" cy="320" fill="hsla(0, 60%, 38%, 1.00)" stroke="none"></circle><circle r="2.0789473684210527" cx="622.2222222222223" cy="320" fill="hsla(0, 60%, 38%, 1.00)" stroke="none"></circle><circle r="2.0789473684210527" cx="666.6666666666667" cy="320" fill="hsla(0, 60%, 38%, 1.00)" stroke="none"></circle><circle r="2.0789473684210527" cx="711.1111111111112" cy="320" fill="hsla(0, 60%, 38%, 1.00)" stroke="none"></circle><circle r="2.0789473684210527" cx="755.5555555555557" cy="320" fill="hsla(0, 60%, 38%, 1.00)" stroke="none"></circle><circle r="2.0789473684210527" cx="800.0000000000001" cy="320" fill="hsla(0, 60%, 38%, 1.00)" stroke="none"></circle><circle r="2.0789473684210527" cx="0" cy="400" fill="hsla(0, 60%, 38%, 1.00)" stroke="none"></circle><circle r="2.0789473684210527" cx="44.44444444444444" cy="400" fill="hsla(0, 60%, 38%, 1.00)" stroke="none"></circle><circle r="2.0789473684210527" cx="88.88888888888889" cy="400" fill="hsla(0, 60%, 38%, 1.00)" stroke="none"></circle><circle r="2.0789473684210527" cx="133.33333333333331" cy="400" fill="hsla(0, 60%, 38%, 1.00)" stroke="none"></circle><circle r="2.0789473684210527" cx="177.77777777777777" cy="400" fill="hsla(0, 60%, 38%, 1.00)" stroke="none"></circle><circle r="2.0789473684210527" cx="222.22222222222223" cy="400" fill="hsla(0, 60%, 38%, 1.00)" stroke="none"></circle><circle r="2.0789473684210527" cx="266.6666666666667" cy="400" fill="hsla(0, 60%, 38%, 1.00)" stroke="none"></circle><circle r="2.0789473684210527" cx="311.11111111111114" cy="400" fill="hsla(0, 60%, 38%, 1.00)" stroke="none"></circle><circle r="2.0789473684210527" cx="355.5555555555556" cy="400" fill="hsla(0, 60%, 38%, 1.00)" stroke="none"></circle><circle r="2.0789473684210527" cx="400.00000000000006" cy="400" fill="hsla(0, 60%, 38%, 1.00)" stroke="none"></circle><circle r="2.0789473684210527" cx="444.4444444444445" cy="400" fill="hsla(0, 60%, 38%, 1.00)" stroke="none"></circle><circle r="2.0789473684210527" cx="488.88888888888897" cy="400" fill="hsla(0, 60%, 38%, 1.00)" stroke="none"></circle><circle r="2.0789473684210527" cx="533.3333333333334" cy="400" fill="hsla(0, 60%, 38%, 1.00)" stroke="none"></circle><circle r="2.0789473684210527" cx="577.7777777777778" cy="400" fill="hsla(0, 60%, 38%, 1.00)" stroke="none"></circle><circle r="2.0789473684210527" cx="622.2222222222223" cy="400" fill="hsla(0, 60%, 38%, 1.00)" stroke="none"></circle><circle r="2.0789473684210527" cx="666.6666666666667" cy="400" fill="hsla(0, 60%, 38%, 1.00)" stroke="none"></circle><circle r="2.0789473684210527" cx="711.1111111111112" cy="400" fill="hsla(0, 60%, 38%, 1.00)" stroke="none"></circle><circle r="2.0789473684210527" cx="755.5555555555557" cy="400" fill="hsla(0, 60%, 38%, 1.00)" stroke="none"></circle><circle r="2.0789473684210527" cx="800.0000000000001" cy="400" fill="hsla(0, 60%, 38%, 1.00)" stroke="none"></circle><circle r="2.0789473684210527" cx="0" cy="480" fill="hsla(0, 60%, 38%, 1.00)" stroke="none"></circle><circle r="2.0789473684210527" cx="44.44444444444444" cy="480" fill="hsla(0, 60%, 38%, 1.00)" stroke="none"></circle><circle r="2.0789473684210527" cx="88.88888888888889" cy="480" fill="hsla(0, 60%, 38%, 1.00)" stroke="none"></circle><circle r="2.0789473684210527" cx="133.33333333333331" cy="480" fill="hsla(0, 60%, 38%, 1.00)" stroke="none"></circle><circle r="2.0789473684210527" cx="177.77777777777777" cy="480" fill="hsla(0, 60%, 38%, 1.00)" stroke="none"></circle><circle r="2.0789473684210527" cx="222.22222222222223" cy="480" fill="hsla(0, 60%, 38%, 1.00)" stroke="none"></circle><circle r="2.0789473684210527" cx="266.6666666666667" cy="480" fill="hsla(0, 60%, 38%, 1.00)" stroke="none"></circle><circle r="2.0789473684210527" cx="311.11111111111114" cy="480" fill="hsla(0, 60%, 38%, 1.00)" stroke="none"></circle><circle r="2.0789473684210527" cx="355.5555555555556" cy="480" fill="hsla(0, 60%, 38%, 1.00)" stroke="none"></circle><circle r="2.0789473684210527" cx="400.00000000000006" cy="480" fill="hsla(0, 60%, 38%, 1.00)" stroke="none"></circle><circle r="2.0789473684210527" cx="444.4444444444445" cy="480" fill="hsla(0, 60%, 38%, 1.00)" stroke="none"></circle><circle r="2.0789473684210527" cx="488.88888888888897" cy="480" fill="hsla(0, 60%, 38%, 1.00)" stroke="none"></circle><circle r="2.0789473684210527" cx="533.3333333333334" cy="480" fill="hsla(0, 60%, 38%, 1.00)" stroke="none"></circle><circle r="2.0789473684210527" cx="577.7777777777778" cy="480" fill="hsla(0, 60%, 38%, 1.00)" stroke="none"></circle><circle r="2.0789473684210527" cx="622.2222222222223" cy="480" fill="hsla(0, 60%, 38%, 1.00)" stroke="none"></circle><circle r="2.0789473684210527" cx="666.6666666666667" cy="480" fill="hsla(0, 60%, 38%, 1.00)" stroke="none"></circle><circle r="2.0789473684210527" cx="711.1111111111112" cy="480" fill="hsla(0, 60%, 38%, 1.00)" stroke="none"></circle><circle r="2.0789473684210527" cx="755.5555555555557" cy="480" fill="hsla(0, 60%, 38%, 1.00)" stroke="none"></circle><circle r="2.0789473684210527" cx="800.0000000000001" cy="480" fill="hsla(0, 60%, 38%, 1.00)" stroke="none"></circle><circle r="2.0789473684210527" cx="0" cy="560" fill="hsla(0, 60%, 38%, 1.00)" stroke="none"></circle><circle r="2.0789473684210527" cx="44.44444444444444" cy="560" fill="hsla(0, 60%, 38%, 1.00)" stroke="none"></circle><circle r="2.0789473684210527" cx="88.88888888888889" cy="560" fill="hsla(0, 60%, 38%, 1.00)" stroke="none"></circle><circle r="2.0789473684210527" cx="133.33333333333331" cy="560" fill="hsla(0, 60%, 38%, 1.00)" stroke="none"></circle><circle r="2.0789473684210527" cx="177.77777777777777" cy="560" fill="hsla(0, 60%, 38%, 1.00)" stroke="none"></circle><circle r="2.0789473684210527" cx="222.22222222222223" cy="560" fill="hsla(0, 60%, 38%, 1.00)" stroke="none"></circle><circle r="2.0789473684210527" cx="266.6666666666667" cy="560" fill="hsla(0, 60%, 38%, 1.00)" stroke="none"></circle><circle r="2.0789473684210527" cx="311.11111111111114" cy="560" fill="hsla(0, 60%, 38%, 1.00)" stroke="none"></circle><circle r="2.0789473684210527" cx="355.5555555555556" cy="560" fill="hsla(0, 60%, 38%, 1.00)" stroke="none"></circle><circle r="2.0789473684210527" cx="400.00000000000006" cy="560" fill="hsla(0, 60%, 38%, 1.00)" stroke="none"></circle><circle r="2.0789473684210527" cx="444.4444444444445" cy="560" fill="hsla(0, 60%, 38%, 1.00)" stroke="none"></circle><circle r="2.0789473684210527" cx="488.88888888888897" cy="560" fill="hsla(0, 60%, 38%, 1.00)" stroke="none"></circle><circle r="2.0789473684210527" cx="533.3333333333334" cy="560" fill="hsla(0, 60%, 38%, 1.00)" stroke="none"></circle><circle r="2.0789473684210527" cx="577.7777777777778" cy="560" fill="hsla(0, 60%, 38%, 1.00)" stroke="none"></circle><circle r="2.0789473684210527" cx="622.2222222222223" cy="560" fill="hsla(0, 60%, 38%, 1.00)" stroke="none"></circle><circle r="2.0789473684210527" cx="666.6666666666667" cy="560" fill="hsla(0, 60%, 38%, 1.00)" stroke="none"></circle><circle r="2.0789473684210527" cx="711.1111111111112" cy="560" fill="hsla(0, 60%, 38%, 1.00)" stroke="none"></circle><circle r="2.0789473684210527" cx="755.5555555555557" cy="560" fill="hsla(0, 60%, 38%, 1.00)" stroke="none"></circle><circle r="2.0789473684210527" cx="800.0000000000001" cy="560" fill="hsla(0, 60%, 38%, 1.00)" stroke="none"></circle><circle r="2.0789473684210527" cx="0" cy="640" fill="hsla(0, 60%, 38%, 1.00)" stroke="none"></circle><circle r="2.0789473684210527" cx="44.44444444444444" cy="640" fill="hsla(0, 60%, 38%, 1.00)" stroke="none"></circle><circle r="2.0789473684210527" cx="88.88888888888889" cy="640" fill="hsla(0, 60%, 38%, 1.00)" stroke="none"></circle><circle r="2.0789473684210527" cx="133.33333333333331" cy="640" fill="hsla(0, 60%, 38%, 1.00)" stroke="none"></circle><circle r="2.0789473684210527" cx="177.77777777777777" cy="640" fill="hsla(0, 60%, 38%, 1.00)" stroke="none"></circle><circle r="2.0789473684210527" cx="222.22222222222223" cy="640" fill="hsla(0, 60%, 38%, 1.00)" stroke="none"></circle><circle r="2.0789473684210527" cx="266.6666666666667" cy="640" fill="hsla(0, 60%, 38%, 1.00)" stroke="none"></circle><circle r="2.0789473684210527" cx="311.11111111111114" cy="640" fill="hsla(0, 60%, 38%, 1.00)" stroke="none"></circle><circle r="2.0789473684210527" cx="355.5555555555556" cy="640" fill="hsla(0, 60%, 38%, 1.00)" stroke="none"></circle><circle r="2.0789473684210527" cx="400.00000000000006" cy="640" fill="hsla(0, 60%, 38%, 1.00)" stroke="none"></circle><circle r="2.0789473684210527" cx="444.4444444444445" cy="640" fill="hsla(0, 60%, 38%, 1.00)" stroke="none"></circle><circle r="2.0789473684210527" cx="488.88888888888897" cy="640" fill="hsla(0, 60%, 38%, 1.00)" stroke="none"></circle><circle r="2.0789473684210527" cx="533.3333333333334" cy="640" fill="hsla(0, 60%, 38%, 1.00)" stroke="none"></circle><circle r="2.0789473684210527" cx="577.7777777777778" cy="640" fill="hsla(0, 60%, 38%, 1.00)" stroke="none"></circle><circle r="2.0789473684210527" cx="622.2222222222223" cy="640" fill="hsla(0, 60%, 38%, 1.00)" stroke="none"></circle><circle r="2.0789473684210527" cx="666.6666666666667" cy="640" fill="hsla(0, 60%, 38%, 1.00)" stroke="none"></circle><circle r="2.0789473684210527" cx="711.1111111111112" cy="640" fill="hsla(0, 60%, 38%, 1.00)" stroke="none"></circle><circle r="2.0789473684210527" cx="755.5555555555557" cy="640" fill="hsla(0, 60%, 38%, 1.00)" stroke="none"></circle><circle r="2.0789473684210527" cx="800.0000000000001" cy="640" fill="hsla(0, 60%, 38%, 1.00)" stroke="none"></circle><circle r="2.0789473684210527" cx="0" cy="720" fill="hsla(0, 60%, 38%, 1.00)" stroke="none"></circle><circle r="2.0789473684210527" cx="44.44444444444444" cy="720" fill="hsla(0, 60%, 38%, 1.00)" stroke="none"></circle><circle r="2.0789473684210527" cx="88.88888888888889" cy="720" fill="hsla(0, 60%, 38%, 1.00)" stroke="none"></circle><circle r="2.0789473684210527" cx="133.33333333333331" cy="720" fill="hsla(0, 60%, 38%, 1.00)" stroke="none"></circle><circle r="2.0789473684210527" cx="177.77777777777777" cy="720" fill="hsla(0, 60%, 38%, 1.00)" stroke="none"></circle><circle r="2.0789473684210527" cx="222.22222222222223" cy="720" fill="hsla(0, 60%, 38%, 1.00)" stroke="none"></circle><circle r="2.0789473684210527" cx="266.6666666666667" cy="720" fill="hsla(0, 60%, 38%, 1.00)" stroke="none"></circle><circle r="2.0789473684210527" cx="311.11111111111114" cy="720" fill="hsla(0, 60%, 38%, 1.00)" stroke="none"></circle><circle r="2.0789473684210527" cx="355.5555555555556" cy="720" fill="hsla(0, 60%, 38%, 1.00)" stroke="none"></circle><circle r="2.0789473684210527" cx="400.00000000000006" cy="720" fill="hsla(0, 60%, 38%, 1.00)" stroke="none"></circle><circle r="2.0789473684210527" cx="444.4444444444445" cy="720" fill="hsla(0, 60%, 38%, 1.00)" stroke="none"></circle><circle r="2.0789473684210527" cx="488.88888888888897" cy="720" fill="hsla(0, 60%, 38%, 1.00)" stroke="none"></circle><circle r="2.0789473684210527" cx="533.3333333333334" cy="720" fill="hsla(0, 60%, 38%, 1.00)" stroke="none"></circle><circle r="2.0789473684210527" cx="577.7777777777778" cy="720" fill="hsla(0, 60%, 38%, 1.00)" stroke="none"></circle><circle r="2.0789473684210527" cx="622.2222222222223" cy="720" fill="hsla(0, 60%, 38%, 1.00)" stroke="none"></circle><circle r="2.0789473684210527" cx="666.6666666666667" cy="720" fill="hsla(0, 60%, 38%, 1.00)" stroke="none"></circle><circle r="2.0789473684210527" cx="711.1111111111112" cy="720" fill="hsla(0, 60%, 38%, 1.00)" stroke="none"></circle><circle r="2.0789473684210527" cx="755.5555555555557" cy="720" fill="hsla(0, 60%, 38%, 1.00)" stroke="none"></circle><circle r="2.0789473684210527" cx="800.0000000000001" cy="720" fill="hsla(0, 60%, 38%, 1.00)" stroke="none"></circle><circle r="2.0789473684210527" cx="0" cy="800" fill="hsla(0, 60%, 38%, 1.00)" stroke="none"></circle><circle r="2.0789473684210527" cx="44.44444444444444" cy="800" fill="hsla(0, 60%, 38%, 1.00)" stroke="none"></circle><circle r="2.0789473684210527" cx="88.88888888888889" cy="800" fill="hsla(0, 60%, 38%, 1.00)" stroke="none"></circle><circle r="2.0789473684210527" cx="133.33333333333331" cy="800" fill="hsla(0, 60%, 38%, 1.00)" stroke="none"></circle><circle r="2.0789473684210527" cx="177.77777777777777" cy="800" fill="hsla(0, 60%, 38%, 1.00)" stroke="none"></circle><circle r="2.0789473684210527" cx="222.22222222222223" cy="800" fill="hsla(0, 60%, 38%, 1.00)" stroke="none"></circle><circle r="2.0789473684210527" cx="266.6666666666667" cy="800" fill="hsla(0, 60%, 38%, 1.00)" stroke="none"></circle><circle r="2.0789473684210527" cx="311.11111111111114" cy="800" fill="hsla(0, 60%, 38%, 1.00)" stroke="none"></circle><circle r="2.0789473684210527" cx="355.5555555555556" cy="800" fill="hsla(0, 60%, 38%, 1.00)" stroke="none"></circle><circle r="2.0789473684210527" cx="400.00000000000006" cy="800" fill="hsla(0, 60%, 38%, 1.00)" stroke="none"></circle><circle r="2.0789473684210527" cx="444.4444444444445" cy="800" fill="hsla(0, 60%, 38%, 1.00)" stroke="none"></circle><circle r="2.0789473684210527" cx="488.88888888888897" cy="800" fill="hsla(0, 60%, 38%, 1.00)" stroke="none"></circle><circle r="2.0789473684210527" cx="533.3333333333334" cy="800" fill="hsla(0, 60%, 38%, 1.00)" stroke="none"></circle><circle r="2.0789473684210527" cx="577.7777777777778" cy="800" fill="hsla(0, 60%, 38%, 1.00)" stroke="none"></circle><circle r="2.0789473684210527" cx="622.2222222222223" cy="800" fill="hsla(0, 60%, 38%, 1.00)" stroke="none"></circle><circle r="2.0789473684210527" cx="666.6666666666667" cy="800" fill="hsla(0, 60%, 38%, 1.00)" stroke="none"></circle><circle r="2.0789473684210527" cx="711.1111111111112" cy="800" fill="hsla(0, 60%, 38%, 1.00)" stroke="none"></circle><circle r="2.0789473684210527" cx="755.5555555555557" cy="800" fill="hsla(0, 60%, 38%, 1.00)" stroke="none"></circle><circle r="2.0789473684210527" cx="800.0000000000001" cy="800" fill="hsla(0, 60%, 38%, 1.00)" stroke="none"></circle></g></svg>